HIERARCHY
ROOT Hips
{
    OFFSET 0.000000 0.000000 0.000000
    CHANNELS 6 Xposition Yposition Zposition Zrotation Xrotation Yrotation
    JOINT Spine
    {
        OFFSET -0.000000 8.603107 0.000000
        CHANNELS 3 Zrotation Xrotation Yrotation
        JOINT Spine1
        {
            OFFSET -0.000000 23.906662 0.000000
            CHANNELS 3 Zrotation Xrotation Yrotation
            JOINT Neck
            {
                OFFSET -0.000000 23.808481 2.164407
                CHANNELS 3 Zrotation Xrotation Yrotation
                JOINT Head
                {
                    OFFSET -0.000000 14.688231 -2.098319
                    CHANNELS 3 Zrotation Xrotation Yrotation
                    End Site
                    {
                        OFFSET -0.000000 26.228985 0.000000
                    }
                }
            }
            JOINT LeftShoulder
            {
                OFFSET 4.178941 22.658146 -0.129871
                CHANNELS 3 Zrotation Xrotation Yrotation
                JOINT LeftArm
                {
                    OFFSET 9.497952 0.000000 0.000000
                    CHANNELS 3 Zrotation Xrotation Yrotation
                    JOINT LeftForeArm
                    {
                        OFFSET 38.855015 0.000000 0.000000
                        CHANNELS 3 Zrotation Xrotation Yrotation
                        JOINT LeftHand
                        {
                            OFFSET 24.940550 0.000000 0.000000
                            CHANNELS 3 Zrotation Xrotation Yrotation
                            End Site
                            {
                                OFFSET 15.737392 0.000000 0.000000
                            }
                        }
                    }
                }
            }
            JOINT RightShoulder
            {
                OFFSET -4.145384 22.658146 -0.129871
                CHANNELS 3 Zrotation Xrotation Yrotation
                JOINT RightArm
                {
                    OFFSET -9.497952 0.000000 0.000000
                    CHANNELS 3 Zrotation Xrotation Yrotation
                    JOINT RightForeArm
                    {
                        OFFSET -38.855015 0.000000 0.000000
                        CHANNELS 3 Zrotation Xrotation Yrotation
                        JOINT RightHand
                        {
                            OFFSET -24.940550 0.000000 0.000000
                            CHANNELS 3 Zrotation Xrotation Yrotation
                            End Site
                            {
                                OFFSET -15.737392 0.000000 0.000000
                            }
                        }
                    }
                }
            }
        }
    }
    JOINT LeftUpLeg
    {
        OFFSET 10.491594 0.000000 0.000000
        CHANNELS 3 Zrotation Xrotation Yrotation
        JOINT LeftLeg
        {
            OFFSET -0.000000 -46.080647 0.000000
            CHANNELS 3 Zrotation Xrotation Yrotation
            JOINT LeftFoot
            {
                OFFSET -0.000000 -50.184704 0.000000
                CHANNELS 3 Zrotation Xrotation Yrotation
                JOINT LeftToeBase
                {
                    OFFSET -0.000000 -6.819536 15.737392
                    CHANNELS 3 Zrotation Xrotation Yrotation
                    End Site
                    {
                        OFFSET -0.000000 0.000000 4.196638
                    }
                }
            }
        }
    }
    JOINT RightUpLeg
    {
        OFFSET -10.491594 0.000000 0.000000
        CHANNELS 3 Zrotation Xrotation Yrotation
        JOINT RightLeg
        {
            OFFSET -0.000000 -46.080647 0.000000
            CHANNELS 3 Zrotation Xrotation Yrotation
            JOINT RightFoot
            {
                OFFSET -0.000000 -50.184704 0.000000
                CHANNELS 3 Zrotation Xrotation Yrotation
                JOINT RightToeBase
                {
                    OFFSET -0.000000 -6.819536 15.737392
                    CHANNELS 3 Zrotation Xrotation Yrotation
                    End Site
                    {
                        OFFSET -0.000000 0.000000 4.196638
                    }
                }
            }
        }
    }
}
MOTION
Frames:    12
Frame Time:    0.008333
44.206734    140.986191    55.754452    -5.760777    0.046839    96.376900    -2.326762    -4.064205    0.449990    5.172353    4.020952    0.350788    6.766791    13.641581    -0.086675    -0.920914    16.599033    -0.254626    -7.045345    11.722276    -15.486659    -49.794464    42.931332    -15.572905    6.228908    -14.098172    -34.671764    -5.792304    -12.435422    4.702644    7.824368    9.906001    -10.762015    42.423717    61.725513    22.529068    3.766892    -25.302967    21.784357    8.754033    -25.712002    3.554775    5.484077    -36.004364    3.925494    -7.325599    67.921982    3.944751    -0.321988    -16.759920    4.450093    0.000000    0.000000    0.000000    4.229629    -7.169702    1.147940    0.923068    14.173793    2.531665    -16.220142    -18.869614    -13.340766    0.000000    0.000000    0.000000    
44.362103    140.890244    55.816086    -5.728691    0.052643    96.202698    -2.241882    -4.022487    0.480875    5.310816    4.023657    0.372901    6.501735    13.657132    -0.023091    -0.869915    16.704708    -0.180014    -7.312789    11.717959    -15.275057    -49.911507    42.809254    -15.130712    5.970933    -14.730894    -35.055855    -4.564538    -13.067789    4.372939    7.695025    10.060300    -10.577376    42.627617    61.488602    22.400494    3.860401    -25.460684    21.688446    8.662538    -25.876314    3.681121    5.850875    -37.305984    4.121777    -9.753171    69.913155    6.860948    0.990854    -17.411133    4.581715    0.000000    0.000000    0.000000    4.237247    -7.304848    1.229809    0.880886    14.599092    2.153279    -15.986437    -19.526644    -12.552732    0.000000    0.000000    0.000000    
44.527679    140.801712    55.866219    -5.703821    0.109804    96.003532    -2.283427    -4.083581    0.550223    5.541160    4.238662    0.426410    6.285007    13.596902    -0.022275    -0.833551    16.643661    -0.177966    -7.469351    11.620631    -15.065218    -50.051163    42.728336    -14.844560    5.714639    -15.386338    -35.403286    -3.573870    -13.740523    4.007976    7.521424    10.046267    -10.551689    42.574318    61.493256    22.532082    3.876657    -25.666571    21.578339    8.884033    -26.052862    3.989221    6.125196    -38.483459    4.477118    -11.520779    71.629227    8.713790    -0.026980    -18.275965    4.286292    0.000000    0.000000    0.000000    4.193857    -7.480521    1.129730    0.952465    15.163494    2.553426    -16.091707    -19.896984    -12.912223    0.000000    0.000000    0.000000    
44.688297    140.717010    55.886196    -5.686931    0.206757    95.667274    -2.196962    -4.030696    0.689752    5.467279    4.204855    0.566267    6.226509    13.652823    -0.014546    -0.742378    16.633774    -0.165514    -7.596276    11.674902    -14.886359    -50.140770    42.613071    -14.493625    5.472499    -15.965495    -35.775730    -2.621097    -14.344933    3.876876    7.694014    10.049345    -10.596473    42.304752    61.515282    22.648575    3.878654    -25.766584    21.451342    9.128093    -26.128147    4.170816    6.438167    -39.610359    4.733967    -14.625738    73.040390    11.818057    0.556007    -18.946148    4.632448    0.000000    0.000000    0.000000    4.105772    -7.713682    0.915086    0.804996    15.759319    2.554172    -15.811130    -20.574673    -12.093845    0.000000    0.000000    0.000000    
44.870586    140.643661    55.953754    -5.603355    0.253700    95.617279    -2.262645    -3.893315    0.703558    5.654299    4.162298    0.574926    6.191617    13.645123    -0.014031    -0.788344    16.625805    -0.164679    -7.655662    11.601040    -14.740685    -50.464851    42.525650    -14.069809    5.239343    -16.596972    -36.078259    -1.923052    -15.015815    3.829022    7.568000    10.030077    -10.628718    42.351135    61.648422    22.682076    3.834114    -25.889851    21.318018    9.273495    -26.222029    4.342362    6.620732    -40.714577    4.871041    -17.247728    74.295883    14.498675    1.164796    -19.761778    4.823421    0.000000    0.000000    0.000000    4.103256    -7.793375    0.769725    0.842771    16.260029    2.826708    -15.918068    -20.855124    -12.481952    0.000000    0.000000    0.000000    
45.031475    140.556305    55.985142    -5.550806    0.365031    95.357491    -2.324367    -3.770082    0.753424    5.822443    4.104553    0.621185    5.987154    13.745470    0.012980    -0.733206    16.517906    -0.126418    -7.832437    11.559493    -14.529806    -50.758953    42.315708    -13.571710    4.997848    -17.080935    -36.482010    -1.160030    -15.535722    3.781433    7.439887    10.060643    -10.539290    42.439259    61.503853    22.678139    3.883428    -25.934299    21.114199    9.337495    -26.239721    4.701768    6.921788    -41.813290    5.014342    -21.415852    75.289818    18.574865    1.435242    -20.372992    5.123446    0.000000    0.000000    0.000000    3.994450    -8.034819    0.633763    0.780199    16.911821    2.852029    -15.886451    -21.402689    -11.874570    0.000000    0.000000    0.000000    
45.217697    140.471512    56.022877    -5.493008    0.478882    95.062469    -2.501004    -3.680134    0.881359    6.108537    4.095283    0.743169    5.934715    13.749919    0.017232    -0.803910    16.425137    -0.121790    -7.951058    11.535845    -14.421440    -51.059597    42.056011    -13.170157    4.790169    -17.447773    -36.781910    -0.859724    -15.947292    3.611811    7.337963    10.020295    -10.666809    42.279209    61.581192    22.860535    3.912900    -26.008760    21.020872    9.417390    -26.311232    4.725924    7.236803    -42.825352    5.311473    -25.154142    76.063148    22.136541    1.728548    -21.038065    5.468745    0.000000    0.000000    0.000000    3.972142    -8.271287    0.588107    0.669398    17.585627    2.913764    -15.856783    -21.864094    -11.702498    0.000000    0.000000    0.000000    
45.385773    140.389786    56.031925    -5.435357    0.635501    94.673012    -2.529188    -3.564405    0.994342    6.098921    4.074662    0.855914    5.902058    13.821672    0.076880    -0.875441    16.251099    -0.056757    -8.072884    11.521845    -14.112364    -51.171791    41.839668    -12.849550    4.528432    -17.737881    -37.118073    -0.381697    -16.295614    3.883702    7.278842    9.977611    -10.648620    42.233109    61.627384    22.983822    3.920825    -26.135090    20.965628    9.418136    -26.440605    4.673857    7.584981    -43.740631    5.632030    -29.390930    76.468636    26.278887    2.863025    -21.465458    5.976514    0.000000    0.000000    0.000000    3.875465    -8.518790    0.635507    0.637927    18.285786    3.113299    -15.723680    -22.266968    -11.710989    0.000000    0.000000    0.000000    
45.590927    140.289246    56.064045    -5.359770    0.728012    94.430389    -2.563562    -3.403620    1.073140    6.144501    3.950985    0.937238    5.682320    13.897966    0.059611    -0.476469    16.129028    -0.064788    -8.010792    11.512585    -14.062982    -51.665546    41.418030    -12.293185    4.316619    -17.887789    -37.332581    -0.491816    -16.508808    3.623096    7.332705    10.028770    -10.714618    42.161530    61.517998    23.046934    4.032976    -26.275541    20.887451    9.451351    -26.579359    4.891768    7.875511    -44.693512    5.898400    -33.025116    76.802933    29.791857    2.722795    -21.760775    6.300073    0.000000    0.000000    0.000000    3.809124    -8.766227    0.770904    0.716492    19.024532    3.091329    -16.081226    -22.632858    -11.656765    0.000000    0.000000    0.000000    
45.802639    140.188690    56.107666    -5.296827    0.799003    94.183891    -2.633941    -3.384521    1.119610    6.293378    4.047909    0.974796    6.036261    13.635929    0.143174    -1.300326    16.466120    0.009459    -7.939994    11.384645    -13.967912    -52.176529    41.041603    -11.773026    4.090038    -18.124830    -37.603504    -0.692725    -16.816574    3.587481    7.304708    10.035615    -10.821724    41.793850    61.591599    23.443222    4.141181    -26.398310    20.990891    9.135931    -26.754494    4.621778    8.225616    -45.602135    6.084919    -36.657612    76.791573    33.392929    3.304347    -22.095633    6.699113    0.000000    0.000000    0.000000    3.792216    -8.993945    0.974211    0.790787    19.727839    3.017291    -15.976496    -23.125645    -11.873074    0.000000    0.000000    0.000000    
46.006126    140.081024    56.127102    -5.238997    0.885109    93.919708    -2.647951    -3.305236    1.182389    6.331583    4.056074    1.034372    5.838605    13.827338    0.192536    -1.002106    15.963600    0.065202    -7.889629    11.353013    -13.843555    -52.508392    40.706253    -11.363684    3.766547    -18.339125    -37.883217    -0.720358    -17.129251    3.652970    7.168987    9.975508    -10.727988    42.233482    61.361874    23.133411    4.265369    -26.383051    20.975298    9.042551    -26.750257    4.798013    8.521435    -46.410248    6.304710    -39.381580    76.559448    36.156525    3.862257    -22.222963    7.078552    0.000000    0.000000    0.000000    3.743776    -9.226109    1.251792    0.895355    20.425732    2.833337    -16.007372    -23.609051    -11.885290    0.000000    0.000000    0.000000    
46.245041    139.961914    56.157578    -5.124599    0.957206    93.693802    -2.661363    -3.235860    1.204817    6.402074    4.138850    1.048462    5.787334    13.751859    0.282865    -1.102508    15.936861    0.155115    -7.946939    11.310369    -13.627770    -52.669857    40.443066    -11.021518    3.353984    -18.585855    -38.131687    -0.900215    -17.512123    3.859177    7.085869    9.964856    -10.669936    42.391304    61.313007    23.053232    4.200204    -26.515001    21.010544    8.970019    -26.876150    4.780691    8.818838    -47.134346    6.608950    -41.327148    76.256241    38.150406    3.947591    -22.377846    7.174318    0.000000    0.000000    0.000000    3.693390    -9.438100    1.121579    0.878413    21.227688    2.952756    -15.885068    -24.195551    -11.861137    0.000000    0.000000    0.000000    
